<svg xmlns="http://www.w3.org/2000/svg" xml:space="preserve" width="47.8" height="47.8"><path d="M21.97 45.36c-6.773-.551-13.068-4.26-16.81-9.906-2.624-3.958-3.88-8.813-3.454-13.35.202-2.151.437-3.272 1.087-5.191C5.237 9.697 11.635 4.15 19.332 2.577c7.76-1.587 15.837.937 21.127 6.603 4.168 4.465 6.31 10.526 5.764 16.31-.283 3-.956 5.336-2.286 7.941-3.474 6.802-10.33 11.298-18.198 11.937-1.738.141-1.946.14-3.769-.008zm4.728-3.265c4.382-.541 8.938-2.976 11.76-6.286 2.122-2.49 3.318-4.777 4.113-7.865.343-1.334.367-1.608.367-4.168s-.024-2.833-.368-4.17c-.667-2.594-1.85-5.054-3.363-6.99-1.071-1.372-.976-1.983-1.022 6.55-.04 7.603-.041 7.612-.351 8.43-.745 1.965-2.803 4.217-4.767 5.217-1.702.866-2.12.927-6.975 1.025-4.796.096-4.98.128-5.609.993-.303.416-.311.508-.352 3.772l-.041 3.345 1.107.145c1.963.258 3.419.259 5.5.002zM16 29.875l.045-10.665.293-.462c.16-.254.52-.585.799-.736.487-.265.714-.277 6.052-.328 4.346-.04 5.593-.09 5.76-.225.17-.14.212-.455.212-1.631 0-.96-.055-1.512-.16-1.615-.12-.117-1.643-.157-6.034-.157-6.357 0-6.634.026-7.871.735-1.274.73-2.43 2.368-2.716 3.848-.075.385-.13 3.673-.13 7.7v7.027H9.719v1.365c0 1.342.008 1.374.414 1.827.48.536 2.173 1.928 3.069 2.523.662.44 2.518 1.456 2.665 1.459.049.001.109-4.798.133-10.664zM9.202 17.909c.87-2.86 3.038-5.239 5.817-6.385 1.885-.777 1.62-.76 12.477-.824l9.986-.059-.731-.64c-7.535-6.584-19.18-6.261-26.3.73-2.237 2.199-3.73 4.563-4.647 7.36-.635 1.938-.878 3.51-.878 5.686 0 3.776 1.016 7.126 3.086 10.177l.709 1.044.102-8.09c.096-7.653.117-8.138.379-8.999Zm19.652 12.598c1.315-.093 1.611-.161 2.501-.575 1.296-.603 2.252-1.528 2.907-2.813l.492-.963v-2.5c0-1.771-.047-2.547-.16-2.658-.232-.227-3.158-.206-3.469.025-.2.15-.234.413-.24 1.855-.012 2.339-.114 2.84-.694 3.408-.44.43-.551.47-1.584.568-.61.057-2.766.107-4.79.112-3.206.007-3.701.035-3.856.217-.11.13-.194.66-.222 1.403-.054 1.438.094 1.808.77 1.926.687.12 6.627.116 8.345-.005zm-2.165-6.53c.339-.127.341-.14.341-1.605 0-.976-.054-1.531-.16-1.635-.115-.113-1.084-.156-3.523-.156-3.228 0-3.37.01-3.507.26-.083.152-.127.822-.105 1.595.036 1.275.053 1.342.371 1.499.408.202 6.057.237 6.583.041z" style="fill:#000;stroke-width:.993269"/></svg>